name analog
datacolumns 19
datarows 69
range 0.4635 0.4975
endheader
time	ground_force_vx	ground_force_vy	ground_force_vz	ground_force_px	ground_force_py	ground_force_pz	l_ground_force_vx	l_ground_force_vy	l_ground_force_vz	l_ground_force_px	l_ground_force_py	l_ground_force_pz	ground_torque_x	ground_torque_y	ground_torque_z	l_ground_torque_x	l_ground_torque_y	l_ground_torque_z
0.4635	-0.0	-0.0	-0.0	-0.0	-0.0	-0.0	-7.995071887969971	1.3662230968475342	-521.6106567382812	-0.0	-0.0	-0.0	-0.0	-0.0	-0.0	171601.671875	-26145.3515625	-4294.5771484375
0.464	-0.0	-0.0	-0.0	-0.0	-0.0	-0.0	-8.208468437194824	1.5375041961669922	-521.6539306640625	-0.0	-0.0	-0.0	-0.0	-0.0	-0.0	171522.328125	-26358.81640625	-4470.794921875
0.4645	-0.0	-0.0	-0.0	-0.0	-0.0	-0.0	-8.375239372253418	1.5845271348953247	-521.1400146484375	-0.0	-0.0	-0.0	-0.0	-0.0	-0.0	171364.5	-26477.4296875	-4509.18505859375
0.465	-0.0	-0.0	-0.0	-0.0	-0.0	-0.0	-8.166549682617188	1.41314697265625	-519.84619140625	-0.0	-0.0	-0.0	-0.0	-0.0	-0.0	170619.65625	-27020.587890625	-4542.32275390625
0.4655	-0.0	-0.0	-0.0	-0.0	-0.0	-0.0	-7.404826641082764	0.6548745632171631	-518.4702758789062	-0.0	-0.0	-0.0	-0.0	-0.0	-0.0	170493.625	-26972.19921875	-4453.01806640625
0.466	-0.0	-0.0	-0.0	-0.0	-0.0	-0.0	-7.143664836883545	0.3115617930889129	-516.72509765625	-0.0	-0.0	-0.0	-0.0	-0.0	-0.0	170038.25	-27892.365234375	-4262.609375
0.4665	-0.0	-0.0	-0.0	-0.0	-0.0	-0.0	-6.195463180541992	-0.1813864111900329	-515.3290405273438	-0.0	-0.0	-0.0	-0.0	-0.0	-0.0	169905.03125	-27990.490234375	-4070.018798828125
0.467	-0.0	-0.0	-0.0	-0.0	-0.0	-0.0	-5.140615940093994	-0.2649650573730469	-515.3115234375	-0.0	-0.0	-0.0	-0.0	-0.0	-0.0	169840.296875	-28832.275390625	-3855.424072265625
0.4675	-0.0	-0.0	-0.0	-0.0	-0.0	-0.0	-3.9498798847198486	-0.6272121667861938	-515.8272705078125	-0.0	-0.0	-0.0	-0.0	-0.0	-0.0	169596.78125	-29198.166015625	-3456.572021484375
0.468	-0.0	-0.0	-0.0	-0.0	-0.0	-0.0	-2.7834157943725586	-0.9295628666877748	-512.73779296875	-0.0	-0.0	-0.0	-0.0	-0.0	-0.0	168891.828125	-29580.923828125	-3234.128173828125
0.4685	-0.0	-0.0	-0.0	-0.0	-0.0	-0.0	-2.526139736175537	-1.2785561084747314	-511.1413269042969	-0.0	-0.0	-0.0	-0.0	-0.0	-0.0	168212.078125	-29915.93359375	-3025.020751953125
0.46900000000000003	-0.0	-0.0	-0.0	-0.0	-0.0	-0.0	-2.614915370941162	-1.8126384019851685	-507.0004577636719	-0.0	-0.0	-0.0	-0.0	-0.0	-0.0	167217.078125	-29974.513671875	-2995.642333984375
0.46950000000000003	-0.0	-0.0	-0.0	-0.0	-0.0	-0.0	-2.7036807537078857	-2.334556579589844	-502.4134521484375	-0.0	-0.0	-0.0	-0.0	-0.0	-0.0	166152.0	-30329.62109375	-3101.739990234375
0.47000000000000003	-0.0	-0.0	-0.0	-0.0	-0.0	-0.0	-3.243706464767456	-2.3386120796203613	-499.2565612792969	-0.0	-0.0	-0.0	-0.0	-0.0	-0.0	165125.4375	-30385.58984375	-3158.909423828125
0.47050000000000003	-0.0	-0.0	-0.0	-0.0	-0.0	-0.0	-3.3598129749298096	-1.551203370094299	-496.2529296875	-0.0	-0.0	-0.0	-0.0	-0.0	-0.0	164227.25	-30574.740234375	-3206.499755859375
0.47100000000000003	-0.0	-0.0	-0.0	-0.0	-0.0	-0.0	-3.019744634628296	-1.2012484073638916	-493.0020751953125	-0.0	-0.0	-0.0	-0.0	-0.0	-0.0	163249.6875	-30926.51953125	-3101.746826171875
0.47150000000000003	-0.0	-0.0	-0.0	-0.0	-0.0	-0.0	-2.043797016143799	-0.5723741054534912	-487.3884887695313	-0.0	-0.0	-0.0	-0.0	-0.0	-0.0	162186.328125	-30997.2734375	-2641.6982421875
0.47200000000000003	-0.0	-0.0	-0.0	-0.0	-0.0	-0.0	-1.153240203857422	-0.04249869287014	-483.5355529785156	-0.0	-0.0	-0.0	-0.0	-0.0	-0.0	160828.953125	-31295.783203125	-2102.51171875
0.47250000000000003	-0.0	-0.0	-0.0	-0.0	-0.0	-0.0	0.3152647316455841	0.4873546063899994	-479.515869140625	-0.0	-0.0	-0.0	-0.0	-0.0	-0.0	159711.328125	-31620.71875	-1643.3438720703125
0.47300000000000003	-0.0	-0.0	-0.0	-0.0	-0.0	-0.0	1.147128701210022	1.1512242555618286	-475.038818359375	-0.0	-0.0	-0.0	-0.0	-0.0	-0.0	158647.0625	-32223.849609375	-1242.73779296875
0.47350000000000003	-0.0	-0.0	-0.0	-0.0	-0.0	-0.0	1.8688186407089236	1.897449612617493	-472.7861022949219	-0.0	-0.0	-0.0	-0.0	-0.0	-0.0	157545.8125	-32525.607421875	-887.1249389648438
0.47400000000000003	-0.0	-0.0	-0.0	-0.0	-0.0	-0.0	3.059126138687134	2.4302361011505127	-468.7085876464844	-0.0	-0.0	-0.0	-0.0	-0.0	-0.0	156493.53125	-32635.44140625	-498.695068359375
0.47450000000000003	-0.0	-0.0	-0.0	-0.0	-0.0	-0.0	3.897948741912842	2.475658416748047	-464.02252197265625	-0.0	-0.0	-0.0	-0.0	-0.0	-0.0	155199.421875	-32768.33984375	-55.927040100097656
0.47500000000000003	-0.0	-0.0	-0.0	-0.0	-0.0	-0.0	3.766445398330689	2.9650204181671143	-460.7302551269531	-0.0	-0.0	-0.0	-0.0	-0.0	-0.0	154079.90625	-32686.619140625	-41.483673095703125
0.47550000000000003	-0.0	-0.0	-0.0	-0.0	-0.0	-0.0	3.100079298019409	2.8716490268707275	-455.2654113769531	-0.0	-0.0	-0.0	-0.0	-0.0	-0.0	152657.484375	-32665.146484375	-146.18826293945312
0.47600000000000003	-0.0	-0.0	-0.0	-0.0	-0.0	-0.0	2.752323865890503	2.2918050289154053	-451.2739562988281	-0.0	-0.0	-0.0	-0.0	-0.0	-0.0	150941.828125	-32454.310546875	-236.3039093017578
0.47650000000000003	-0.0	-0.0	-0.0	-0.0	-0.0	-0.0	2.083635807037353	1.9883008003234863	-447.77435302734375	-0.0	-0.0	-0.0	-0.0	-0.0	-0.0	149637.546875	-32493.625	-160.8083038330078
0.47700000000000004	-0.0	-0.0	-0.0	-0.0	-0.0	-0.0	1.9122979640960691	1.854755401611328	-446.5491333007813	-0.0	-0.0	-0.0	-0.0	-0.0	-0.0	149055.921875	-32418.083984375	-235.48118591308597
0.47750000000000004	-0.0	-0.0	-0.0	-0.0	-0.0	-0.0	1.3740686178207395	1.101188063621521	-445.1907043457031	-0.0	-0.0	-0.0	-0.0	-0.0	-0.0	148693.1875	-32766.12890625	-295.3834533691406
0.47800000000000004	-0.0	-0.0	-0.0	-0.0	-0.0	-0.0	0.928849160671234	0.8814817667007446	-444.8191528320313	-0.0	-0.0	-0.0	-0.0	-0.0	-0.0	148509.78125	-32702.96484375	-428.9526977539063
0.47850000000000004	-0.0	-0.0	-0.0	-0.0	-0.0	-0.0	0.7548485994338989	0.5781078338623047	-443.4035339355469	-0.0	-0.0	-0.0	-0.0	-0.0	-0.0	148393.46875	-32946.6953125	-664.868408203125
0.47900000000000004	-0.0	-0.0	-0.0	-0.0	-0.0	-0.0	0.7998566031455994	1.0149728059768677	-441.6882934570313	-0.0	-0.0	-0.0	-0.0	-0.0	-0.0	147838.8125	-32971.23046875	-533.6140747070312
0.47950000000000004	-0.0	-0.0	-0.0	-0.0	-0.0	-0.0	1.1518901586532593	0.7527505159378052	-442.73486328125	-0.0	-0.0	-0.0	-0.0	-0.0	-0.0	147952.625	-33270.2265625	-472.7113342285156
0.48	-0.0	-0.0	-0.0	-0.0	-0.0	-0.0	1.7742156982421875	0.8347345590591431	-442.3751220703125	-0.0	-0.0	-0.0	-0.0	-0.0	-0.0	148343.078125	-33732.6171875	-399.1980590820313
0.4805	-0.0	-0.0	-0.0	-0.0	-0.0	-0.0	1.818028211593628	0.5757125616073608	-443.0776672363281	-0.0	-0.0	-0.0	-0.0	-0.0	-0.0	148460.0	-33703.4765625	-368.816650390625
0.481	-0.0	-0.0	-0.0	-0.0	-0.0	-0.0	1.8190494775772093	0.7512106895446777	-443.9406433105469	-0.0	-0.0	-0.0	-0.0	-0.0	-0.0	148550.140625	-33992.55078125	-414.4519958496094
0.4815	-0.0	-0.0	-0.0	-0.0	-0.0	-0.0	1.5520153045654297	0.7074165940284729	-442.72760009765625	-0.0	-0.0	-0.0	-0.0	-0.0	-0.0	148582.984375	-34473.48828125	-547.926025390625
0.482	-0.0	-0.0	-0.0	-0.0	-0.0	-0.0	1.8189173936843872	0.8380217552185059	-441.324951171875	-0.0	-0.0	-0.0	-0.0	-0.0	-0.0	148311.265625	-34400.2578125	-651.1024169921875
0.4825	-0.0	-0.0	-0.0	-0.0	-0.0	-0.0	1.4176236391067505	0.7071539163589478	-441.6790771484375	-0.0	-0.0	-0.0	-0.0	-0.0	-0.0	148417.0625	-34422.28125	-710.7490844726562
0.483	-0.0	-0.0	-0.0	-0.0	-0.0	-0.0	1.5089406967163086	1.1055148839950562	-440.9819030761719	-0.0	-0.0	-0.0	-0.0	-0.0	-0.0	148791.40625	-34649.4375	-1007.080078125
0.4835	-0.0	-0.0	-0.0	-0.0	-0.0	-0.0	1.0651289224624634	1.2362051010131836	-442.3751220703125	-0.0	-0.0	-0.0	-0.0	-0.0	-0.0	149016.015625	-34964.5703125	-1155.725830078125
0.484	-0.0	-0.0	-0.0	-0.0	-0.0	-0.0	1.41937255859375	1.7216097116470337	-441.6753234863281	-0.0	-0.0	-0.0	-0.0	-0.0	-0.0	148988.640625	-35207.19140625	-1303.834716796875
0.4845	-0.0	-0.0	-0.0	-0.0	-0.0	-0.0	1.4195526838302612	2.296328067779541	-440.28021240234375	-0.0	-0.0	-0.0	-0.0	-0.0	-0.0	148790.71875	-35527.42578125	-1333.2889404296875
0.485	-0.0	-0.0	-0.0	-0.0	-0.0	-0.0	1.6413815021514893	3.0913515090942383	-439.5819091796875	-0.0	-0.0	-0.0	-0.0	-0.0	-0.0	149109.640625	-36184.40234375	-1288.44873046875
0.4855	-0.0	-0.0	-0.0	-0.0	-0.0	-0.0	2.483496189117432	3.6207852363586426	-440.80511474609375	-0.0	-0.0	-0.0	-0.0	-0.0	-0.0	149344.96875	-36661.05078125	-1183.9434814453125
0.486	-0.0	-0.0	-0.0	-0.0	-0.0	-0.0	3.94745135307312	3.974120378494263	-440.1077270507813	-0.0	-0.0	-0.0	-0.0	-0.0	-0.0	149391.171875	-37510.3828125	-871.2125854492188
0.4865	-0.0	-0.0	-0.0	-0.0	-0.0	-0.0	4.923691749572754	4.681049346923828	-441.503173828125	-0.0	-0.0	-0.0	-0.0	-0.0	-0.0	149518.34375	-37951.4140625	-544.17529296875
0.487	-0.0	-0.0	-0.0	-0.0	-0.0	-0.0	6.211035251617432	4.815125465393066	-440.7976379394531	-0.0	-0.0	-0.0	-0.0	-0.0	-0.0	150070.515625	-38346.30859375	-216.94700622558597
0.4875	-0.0	-0.0	-0.0	-0.0	-0.0	-0.0	7.319764614105225	5.87451171875	-441.32763671875	-0.0	-0.0	-0.0	-0.0	-0.0	-0.0	149880.703125	-38690.73828125	110.64745330810548
0.488	-0.0	-0.0	-0.0	-0.0	-0.0	-0.0	8.162251472473145	6.401182651519775	-440.7988586425781	-0.0	-0.0	-0.0	-0.0	-0.0	-0.0	150445.953125	-39022.0546875	244.1683807373047
0.4885	-0.0	-0.0	-0.0	-0.0	-0.0	-0.0	8.560083389282227	7.507343292236328	-442.543701171875	-0.0	-0.0	-0.0	-0.0	-0.0	-0.0	150913.484375	-39814.53515625	378.2867736816406
0.489	-0.0	-0.0	-0.0	-0.0	-0.0	-0.0	9.089999198913574	7.99368143081665	-441.6858215332031	-0.0	-0.0	-0.0	-0.0	-0.0	-0.0	150688.71875	-39697.77734375	647.227294921875
0.4895	-0.0	-0.0	-0.0	-0.0	-0.0	-0.0	9.400836944580078	8.3507661819458	-440.4572448730469	-0.0	-0.0	-0.0	-0.0	-0.0	-0.0	150702.5625	-39884.0234375	809.3169555664062
0.49	-0.0	-0.0	-0.0	-0.0	-0.0	-0.0	9.541336059570312	8.432619094848633	-440.1194763183594	-0.0	-0.0	-0.0	-0.0	-0.0	-0.0	150266.28125	-40224.296875	988.3116455078124
0.4905	-0.0	-0.0	-0.0	-0.0	-0.0	-0.0	9.67250919342041	8.080678939819336	-438.0077209472656	-0.0	-0.0	-0.0	-0.0	-0.0	-0.0	150052.578125	-40162.21484375	928.5167846679688
0.491	-0.0	-0.0	-0.0	-0.0	-0.0	-0.0	9.135540008544922	7.820629119873047	-438.5278625488281	-0.0	-0.0	-0.0	-0.0	-0.0	-0.0	149838.015625	-40276.33984375	1001.9495239257812
0.4915	-0.0	-0.0	-0.0	-0.0	-0.0	-0.0	8.387669563293457	7.99221658706665	-437.4869995117188	-0.0	-0.0	-0.0	-0.0	-0.0	-0.0	150023.203125	-40434.1328125	764.1273803710938
0.492	-0.0	-0.0	-0.0	-0.0	-0.0	-0.0	7.719748020172119	8.125595092773438	-439.4261169433594	-0.0	-0.0	-0.0	-0.0	-0.0	-0.0	150182.84375	-40651.2109375	499.24603271484375
0.4925	-0.0	-0.0	-0.0	-0.0	-0.0	-0.0	7.274284362792969	8.88146686553955	-440.4425964355469	-0.0	-0.0	-0.0	-0.0	-0.0	-0.0	150766.515625	-40874.75390625	319.24688720703125
0.493	-0.0	-0.0	-0.0	-0.0	-0.0	-0.0	7.094669818878174	8.433629035949707	-441.32763671875	-0.0	-0.0	-0.0	-0.0	-0.0	-0.0	151092.828125	-41233.453125	360.9564208984375
0.4935	-0.0	-0.0	-0.0	-0.0	-0.0	-0.0	7.365298271179199	8.51960277557373	-441.32763671875	-0.0	-0.0	-0.0	-0.0	-0.0	-0.0	151284.40625	-41625.65625	364.1408386230469
0.494	-0.0	-0.0	-0.0	-0.0	-0.0	-0.0	8.204519271850586	8.168532371520996	-441.17724609375	-0.0	-0.0	-0.0	-0.0	-0.0	-0.0	151341.171875	-41698.80859375	764.7537841796875
0.4945	-0.0	-0.0	-0.0	-0.0	-0.0	-0.0	9.796075820922852	8.171043395996094	-440.798828125	-0.0	-0.0	-0.0	-0.0	-0.0	-0.0	151603.078125	-42304.0	1225.26806640625
0.495	-0.0	-0.0	-0.0	-0.0	-0.0	-0.0	10.819974899291992	7.817833423614502	-442.1951293945313	-0.0	-0.0	-0.0	-0.0	-0.0	-0.0	151653.59375	-42804.00390625	1727.4459228515625
0.4955	-0.0	-0.0	-0.0	-0.0	-0.0	-0.0	12.061816215515137	6.852024555206299	-442.5328674316406	-0.0	-0.0	-0.0	-0.0	-0.0	-0.0	151481.390625	-43138.79296875	2085.8486328125
0.496	-0.0	-0.0	-0.0	-0.0	-0.0	-0.0	12.728517532348633	6.444536685943604	-442.1947021484375	-0.0	-0.0	-0.0	-0.0	-0.0	-0.0	151540.109375	-43308.453125	2353.158935546875
0.4965	-0.0	-0.0	-0.0	-0.0	-0.0	-0.0	13.520610809326172	5.698298931121826	-441.67681884765625	-0.0	-0.0	-0.0	-0.0	-0.0	-0.0	151513.015625	-43844.515625	2797.400634765625
0.497	-0.0	-0.0	-0.0	-0.0	-0.0	-0.0	14.321928024291992	5.168432712554932	-442.0259399414063	-0.0	-0.0	-0.0	-0.0	-0.0	-0.0	151344.71875	-44409.82421875	3080.10009765625
0.4975	-0.0	-0.0	-0.0	-0.0	-0.0	-0.0	14.992122650146484	4.144443035125732	-441.8183898925781	-0.0	-0.0	-0.0	-0.0	-0.0	-0.0	151198.296875	-44754.16015625	3525.22216796875
